<mxfile host="app.diagrams.net" agent="Mozilla/5.0 (Windows NT 10.0; Win64; x64) AppleWebKit/537.36 (KHTML, like Gecko) Chrome/131.0.0.0 Safari/537.36" version="24.9.3">
  <diagram name="หน้า-1" id="hLmLibv7Npc-TCfEhLKA">
    <mxGraphModel dx="2100" dy="1060" grid="1" gridSize="10" guides="1" tooltips="1" connect="1" arrows="1" fold="1" page="1" pageScale="1" pageWidth="827" pageHeight="1169" math="0" shadow="0">
      <root>
        <mxCell id="0" />
        <mxCell id="1" parent="0" />
        <mxCell id="2rCUphk5lxFRs8kfhUCh-1" value="" style="edgeStyle=orthogonalEdgeStyle;rounded=0;orthogonalLoop=1;jettySize=auto;html=1;" edge="1" parent="1" source="2rCUphk5lxFRs8kfhUCh-2" target="2rCUphk5lxFRs8kfhUCh-4">
          <mxGeometry relative="1" as="geometry" />
        </mxCell>
        <mxCell id="2rCUphk5lxFRs8kfhUCh-2" value="Start" style="ellipse;whiteSpace=wrap;html=1;" vertex="1" parent="1">
          <mxGeometry x="40" y="40" width="120" height="80" as="geometry" />
        </mxCell>
        <mxCell id="2rCUphk5lxFRs8kfhUCh-3" value="" style="edgeStyle=orthogonalEdgeStyle;rounded=0;orthogonalLoop=1;jettySize=auto;html=1;" edge="1" parent="1" source="2rCUphk5lxFRs8kfhUCh-4" target="2rCUphk5lxFRs8kfhUCh-7">
          <mxGeometry relative="1" as="geometry" />
        </mxCell>
        <mxCell id="2rCUphk5lxFRs8kfhUCh-4" value="Input score" style="shape=parallelogram;perimeter=parallelogramPerimeter;whiteSpace=wrap;html=1;fixedSize=1;" vertex="1" parent="1">
          <mxGeometry x="40" y="210" width="120" height="60" as="geometry" />
        </mxCell>
        <mxCell id="2rCUphk5lxFRs8kfhUCh-5" value="F" style="edgeStyle=orthogonalEdgeStyle;rounded=0;orthogonalLoop=1;jettySize=auto;html=1;" edge="1" parent="1" source="2rCUphk5lxFRs8kfhUCh-7" target="2rCUphk5lxFRs8kfhUCh-10">
          <mxGeometry relative="1" as="geometry" />
        </mxCell>
        <mxCell id="2rCUphk5lxFRs8kfhUCh-6" value="T" style="edgeStyle=orthogonalEdgeStyle;rounded=0;orthogonalLoop=1;jettySize=auto;html=1;" edge="1" parent="1" source="2rCUphk5lxFRs8kfhUCh-7" target="2rCUphk5lxFRs8kfhUCh-32">
          <mxGeometry relative="1" as="geometry" />
        </mxCell>
        <mxCell id="2rCUphk5lxFRs8kfhUCh-7" value="score = 0-49" style="rhombus;whiteSpace=wrap;html=1;" vertex="1" parent="1">
          <mxGeometry x="60" y="340" width="80" height="80" as="geometry" />
        </mxCell>
        <mxCell id="2rCUphk5lxFRs8kfhUCh-8" value="F" style="edgeStyle=orthogonalEdgeStyle;rounded=0;orthogonalLoop=1;jettySize=auto;html=1;" edge="1" parent="1" source="2rCUphk5lxFRs8kfhUCh-10" target="2rCUphk5lxFRs8kfhUCh-13">
          <mxGeometry relative="1" as="geometry" />
        </mxCell>
        <mxCell id="2rCUphk5lxFRs8kfhUCh-9" value="T" style="edgeStyle=orthogonalEdgeStyle;rounded=0;orthogonalLoop=1;jettySize=auto;html=1;" edge="1" parent="1" source="2rCUphk5lxFRs8kfhUCh-10" target="2rCUphk5lxFRs8kfhUCh-34">
          <mxGeometry relative="1" as="geometry" />
        </mxCell>
        <mxCell id="2rCUphk5lxFRs8kfhUCh-10" value="score = 50-54" style="rhombus;whiteSpace=wrap;html=1;" vertex="1" parent="1">
          <mxGeometry x="220" y="340" width="80" height="80" as="geometry" />
        </mxCell>
        <mxCell id="2rCUphk5lxFRs8kfhUCh-11" value="F" style="edgeStyle=orthogonalEdgeStyle;rounded=0;orthogonalLoop=1;jettySize=auto;html=1;" edge="1" parent="1" source="2rCUphk5lxFRs8kfhUCh-13" target="2rCUphk5lxFRs8kfhUCh-16">
          <mxGeometry relative="1" as="geometry" />
        </mxCell>
        <mxCell id="2rCUphk5lxFRs8kfhUCh-12" value="T" style="edgeStyle=orthogonalEdgeStyle;rounded=0;orthogonalLoop=1;jettySize=auto;html=1;" edge="1" parent="1" source="2rCUphk5lxFRs8kfhUCh-13" target="2rCUphk5lxFRs8kfhUCh-36">
          <mxGeometry relative="1" as="geometry" />
        </mxCell>
        <mxCell id="2rCUphk5lxFRs8kfhUCh-13" value="score = 55-59" style="rhombus;whiteSpace=wrap;html=1;" vertex="1" parent="1">
          <mxGeometry x="380" y="340" width="80" height="80" as="geometry" />
        </mxCell>
        <mxCell id="2rCUphk5lxFRs8kfhUCh-14" value="F" style="edgeStyle=orthogonalEdgeStyle;rounded=0;orthogonalLoop=1;jettySize=auto;html=1;" edge="1" parent="1" source="2rCUphk5lxFRs8kfhUCh-16" target="2rCUphk5lxFRs8kfhUCh-19">
          <mxGeometry relative="1" as="geometry" />
        </mxCell>
        <mxCell id="2rCUphk5lxFRs8kfhUCh-15" value="T" style="edgeStyle=orthogonalEdgeStyle;rounded=0;orthogonalLoop=1;jettySize=auto;html=1;" edge="1" parent="1" source="2rCUphk5lxFRs8kfhUCh-16" target="2rCUphk5lxFRs8kfhUCh-38">
          <mxGeometry relative="1" as="geometry" />
        </mxCell>
        <mxCell id="2rCUphk5lxFRs8kfhUCh-16" value="score = 60-64" style="rhombus;whiteSpace=wrap;html=1;" vertex="1" parent="1">
          <mxGeometry x="540" y="340" width="80" height="80" as="geometry" />
        </mxCell>
        <mxCell id="2rCUphk5lxFRs8kfhUCh-17" value="F" style="edgeStyle=orthogonalEdgeStyle;rounded=0;orthogonalLoop=1;jettySize=auto;html=1;" edge="1" parent="1" source="2rCUphk5lxFRs8kfhUCh-19" target="2rCUphk5lxFRs8kfhUCh-22">
          <mxGeometry relative="1" as="geometry" />
        </mxCell>
        <mxCell id="2rCUphk5lxFRs8kfhUCh-18" value="T" style="edgeStyle=orthogonalEdgeStyle;rounded=0;orthogonalLoop=1;jettySize=auto;html=1;" edge="1" parent="1" source="2rCUphk5lxFRs8kfhUCh-19" target="2rCUphk5lxFRs8kfhUCh-40">
          <mxGeometry relative="1" as="geometry" />
        </mxCell>
        <mxCell id="2rCUphk5lxFRs8kfhUCh-19" value="score = 65-69" style="rhombus;whiteSpace=wrap;html=1;" vertex="1" parent="1">
          <mxGeometry x="700" y="340" width="80" height="80" as="geometry" />
        </mxCell>
        <mxCell id="2rCUphk5lxFRs8kfhUCh-20" value="F" style="edgeStyle=orthogonalEdgeStyle;rounded=0;orthogonalLoop=1;jettySize=auto;html=1;" edge="1" parent="1" source="2rCUphk5lxFRs8kfhUCh-22" target="2rCUphk5lxFRs8kfhUCh-25">
          <mxGeometry relative="1" as="geometry" />
        </mxCell>
        <mxCell id="2rCUphk5lxFRs8kfhUCh-21" value="T" style="edgeStyle=orthogonalEdgeStyle;rounded=0;orthogonalLoop=1;jettySize=auto;html=1;" edge="1" parent="1" source="2rCUphk5lxFRs8kfhUCh-22" target="2rCUphk5lxFRs8kfhUCh-42">
          <mxGeometry relative="1" as="geometry" />
        </mxCell>
        <mxCell id="2rCUphk5lxFRs8kfhUCh-22" value="score = 70-74" style="rhombus;whiteSpace=wrap;html=1;" vertex="1" parent="1">
          <mxGeometry x="860" y="340" width="80" height="80" as="geometry" />
        </mxCell>
        <mxCell id="2rCUphk5lxFRs8kfhUCh-23" value="F" style="edgeStyle=orthogonalEdgeStyle;rounded=0;orthogonalLoop=1;jettySize=auto;html=1;" edge="1" parent="1" source="2rCUphk5lxFRs8kfhUCh-25" target="2rCUphk5lxFRs8kfhUCh-28">
          <mxGeometry relative="1" as="geometry" />
        </mxCell>
        <mxCell id="2rCUphk5lxFRs8kfhUCh-24" value="T" style="edgeStyle=orthogonalEdgeStyle;rounded=0;orthogonalLoop=1;jettySize=auto;html=1;" edge="1" parent="1" source="2rCUphk5lxFRs8kfhUCh-25" target="2rCUphk5lxFRs8kfhUCh-44">
          <mxGeometry relative="1" as="geometry" />
        </mxCell>
        <mxCell id="2rCUphk5lxFRs8kfhUCh-25" value="score = 75-79" style="rhombus;whiteSpace=wrap;html=1;" vertex="1" parent="1">
          <mxGeometry x="1020" y="340" width="80" height="80" as="geometry" />
        </mxCell>
        <mxCell id="2rCUphk5lxFRs8kfhUCh-26" value="F" style="edgeStyle=orthogonalEdgeStyle;rounded=0;orthogonalLoop=1;jettySize=auto;html=1;" edge="1" parent="1" source="2rCUphk5lxFRs8kfhUCh-28" target="2rCUphk5lxFRs8kfhUCh-30">
          <mxGeometry relative="1" as="geometry" />
        </mxCell>
        <mxCell id="2rCUphk5lxFRs8kfhUCh-27" value="T" style="edgeStyle=orthogonalEdgeStyle;rounded=0;orthogonalLoop=1;jettySize=auto;html=1;" edge="1" parent="1" source="2rCUphk5lxFRs8kfhUCh-28" target="2rCUphk5lxFRs8kfhUCh-46">
          <mxGeometry relative="1" as="geometry" />
        </mxCell>
        <mxCell id="2rCUphk5lxFRs8kfhUCh-28" value="score = 80-100" style="rhombus;whiteSpace=wrap;html=1;" vertex="1" parent="1">
          <mxGeometry x="1180" y="340" width="86" height="80" as="geometry" />
        </mxCell>
        <mxCell id="2rCUphk5lxFRs8kfhUCh-29" style="edgeStyle=orthogonalEdgeStyle;rounded=0;orthogonalLoop=1;jettySize=auto;html=1;exitX=0.5;exitY=1;exitDx=0;exitDy=0;entryX=1;entryY=0.5;entryDx=0;entryDy=0;" edge="1" parent="1" source="2rCUphk5lxFRs8kfhUCh-30" target="2rCUphk5lxFRs8kfhUCh-62">
          <mxGeometry relative="1" as="geometry" />
        </mxCell>
        <mxCell id="2rCUphk5lxFRs8kfhUCh-30" value="Output Error" style="shape=parallelogram;perimeter=parallelogramPerimeter;whiteSpace=wrap;html=1;fixedSize=1;" vertex="1" parent="1">
          <mxGeometry x="1329" y="350" width="120" height="60" as="geometry" />
        </mxCell>
        <mxCell id="2rCUphk5lxFRs8kfhUCh-31" style="edgeStyle=orthogonalEdgeStyle;rounded=0;orthogonalLoop=1;jettySize=auto;html=1;exitX=0.5;exitY=1;exitDx=0;exitDy=0;entryX=0;entryY=0.5;entryDx=0;entryDy=0;" edge="1" parent="1" source="2rCUphk5lxFRs8kfhUCh-32" target="2rCUphk5lxFRs8kfhUCh-48">
          <mxGeometry relative="1" as="geometry" />
        </mxCell>
        <mxCell id="2rCUphk5lxFRs8kfhUCh-32" value="Output F !" style="shape=parallelogram;perimeter=parallelogramPerimeter;whiteSpace=wrap;html=1;fixedSize=1;" vertex="1" parent="1">
          <mxGeometry x="40" y="510" width="120" height="60" as="geometry" />
        </mxCell>
        <mxCell id="2rCUphk5lxFRs8kfhUCh-33" style="edgeStyle=orthogonalEdgeStyle;rounded=0;orthogonalLoop=1;jettySize=auto;html=1;exitX=0.5;exitY=1;exitDx=0;exitDy=0;entryX=1;entryY=0.5;entryDx=0;entryDy=0;" edge="1" parent="1" source="2rCUphk5lxFRs8kfhUCh-34" target="2rCUphk5lxFRs8kfhUCh-48">
          <mxGeometry relative="1" as="geometry" />
        </mxCell>
        <mxCell id="2rCUphk5lxFRs8kfhUCh-34" value="Output D !" style="shape=parallelogram;perimeter=parallelogramPerimeter;whiteSpace=wrap;html=1;fixedSize=1;" vertex="1" parent="1">
          <mxGeometry x="200" y="510" width="120" height="60" as="geometry" />
        </mxCell>
        <mxCell id="2rCUphk5lxFRs8kfhUCh-35" style="edgeStyle=orthogonalEdgeStyle;rounded=0;orthogonalLoop=1;jettySize=auto;html=1;exitX=0.5;exitY=1;exitDx=0;exitDy=0;entryX=0;entryY=0.5;entryDx=0;entryDy=0;" edge="1" parent="1" source="2rCUphk5lxFRs8kfhUCh-36" target="2rCUphk5lxFRs8kfhUCh-50">
          <mxGeometry relative="1" as="geometry" />
        </mxCell>
        <mxCell id="2rCUphk5lxFRs8kfhUCh-36" value="Output D+ !" style="shape=parallelogram;perimeter=parallelogramPerimeter;whiteSpace=wrap;html=1;fixedSize=1;" vertex="1" parent="1">
          <mxGeometry x="360" y="510" width="120" height="60" as="geometry" />
        </mxCell>
        <mxCell id="2rCUphk5lxFRs8kfhUCh-37" style="edgeStyle=orthogonalEdgeStyle;rounded=0;orthogonalLoop=1;jettySize=auto;html=1;exitX=0.5;exitY=1;exitDx=0;exitDy=0;entryX=1;entryY=0.5;entryDx=0;entryDy=0;" edge="1" parent="1" source="2rCUphk5lxFRs8kfhUCh-38" target="2rCUphk5lxFRs8kfhUCh-50">
          <mxGeometry relative="1" as="geometry" />
        </mxCell>
        <mxCell id="2rCUphk5lxFRs8kfhUCh-38" value="Output C !" style="shape=parallelogram;perimeter=parallelogramPerimeter;whiteSpace=wrap;html=1;fixedSize=1;" vertex="1" parent="1">
          <mxGeometry x="520" y="510" width="120" height="60" as="geometry" />
        </mxCell>
        <mxCell id="2rCUphk5lxFRs8kfhUCh-39" style="edgeStyle=orthogonalEdgeStyle;rounded=0;orthogonalLoop=1;jettySize=auto;html=1;exitX=0.5;exitY=1;exitDx=0;exitDy=0;entryX=0;entryY=0.5;entryDx=0;entryDy=0;" edge="1" parent="1" source="2rCUphk5lxFRs8kfhUCh-40" target="2rCUphk5lxFRs8kfhUCh-52">
          <mxGeometry relative="1" as="geometry" />
        </mxCell>
        <mxCell id="2rCUphk5lxFRs8kfhUCh-40" value="Output C+ !" style="shape=parallelogram;perimeter=parallelogramPerimeter;whiteSpace=wrap;html=1;fixedSize=1;" vertex="1" parent="1">
          <mxGeometry x="680" y="510" width="120" height="60" as="geometry" />
        </mxCell>
        <mxCell id="2rCUphk5lxFRs8kfhUCh-41" style="edgeStyle=orthogonalEdgeStyle;rounded=0;orthogonalLoop=1;jettySize=auto;html=1;exitX=0.5;exitY=1;exitDx=0;exitDy=0;entryX=1;entryY=0.5;entryDx=0;entryDy=0;" edge="1" parent="1" source="2rCUphk5lxFRs8kfhUCh-42" target="2rCUphk5lxFRs8kfhUCh-52">
          <mxGeometry relative="1" as="geometry" />
        </mxCell>
        <mxCell id="2rCUphk5lxFRs8kfhUCh-42" value="Output B !" style="shape=parallelogram;perimeter=parallelogramPerimeter;whiteSpace=wrap;html=1;fixedSize=1;" vertex="1" parent="1">
          <mxGeometry x="840" y="510" width="120" height="60" as="geometry" />
        </mxCell>
        <mxCell id="2rCUphk5lxFRs8kfhUCh-43" style="edgeStyle=orthogonalEdgeStyle;rounded=0;orthogonalLoop=1;jettySize=auto;html=1;exitX=0.5;exitY=1;exitDx=0;exitDy=0;entryX=0;entryY=0.5;entryDx=0;entryDy=0;" edge="1" parent="1" source="2rCUphk5lxFRs8kfhUCh-44" target="2rCUphk5lxFRs8kfhUCh-54">
          <mxGeometry relative="1" as="geometry" />
        </mxCell>
        <mxCell id="2rCUphk5lxFRs8kfhUCh-44" value="Output B+ !" style="shape=parallelogram;perimeter=parallelogramPerimeter;whiteSpace=wrap;html=1;fixedSize=1;" vertex="1" parent="1">
          <mxGeometry x="1000" y="510" width="120" height="60" as="geometry" />
        </mxCell>
        <mxCell id="2rCUphk5lxFRs8kfhUCh-45" style="edgeStyle=orthogonalEdgeStyle;rounded=0;orthogonalLoop=1;jettySize=auto;html=1;exitX=0.5;exitY=1;exitDx=0;exitDy=0;entryX=1;entryY=0.5;entryDx=0;entryDy=0;" edge="1" parent="1" source="2rCUphk5lxFRs8kfhUCh-46" target="2rCUphk5lxFRs8kfhUCh-54">
          <mxGeometry relative="1" as="geometry" />
        </mxCell>
        <mxCell id="2rCUphk5lxFRs8kfhUCh-46" value="Output A !" style="shape=parallelogram;perimeter=parallelogramPerimeter;whiteSpace=wrap;html=1;fixedSize=1;" vertex="1" parent="1">
          <mxGeometry x="1163" y="510" width="120" height="60" as="geometry" />
        </mxCell>
        <mxCell id="2rCUphk5lxFRs8kfhUCh-47" style="edgeStyle=orthogonalEdgeStyle;rounded=0;orthogonalLoop=1;jettySize=auto;html=1;exitX=0.5;exitY=1;exitDx=0;exitDy=0;entryX=0;entryY=0.5;entryDx=0;entryDy=0;" edge="1" parent="1" source="2rCUphk5lxFRs8kfhUCh-48" target="2rCUphk5lxFRs8kfhUCh-56">
          <mxGeometry relative="1" as="geometry" />
        </mxCell>
        <mxCell id="2rCUphk5lxFRs8kfhUCh-48" value="" style="ellipse;whiteSpace=wrap;html=1;aspect=fixed;" vertex="1" parent="1">
          <mxGeometry x="176" y="590" width="10" height="10" as="geometry" />
        </mxCell>
        <mxCell id="2rCUphk5lxFRs8kfhUCh-49" style="edgeStyle=orthogonalEdgeStyle;rounded=0;orthogonalLoop=1;jettySize=auto;html=1;exitX=0.5;exitY=1;exitDx=0;exitDy=0;entryX=1;entryY=0.5;entryDx=0;entryDy=0;" edge="1" parent="1" source="2rCUphk5lxFRs8kfhUCh-50" target="2rCUphk5lxFRs8kfhUCh-56">
          <mxGeometry relative="1" as="geometry" />
        </mxCell>
        <mxCell id="2rCUphk5lxFRs8kfhUCh-50" value="" style="ellipse;whiteSpace=wrap;html=1;aspect=fixed;" vertex="1" parent="1">
          <mxGeometry x="496" y="590" width="10" height="10" as="geometry" />
        </mxCell>
        <mxCell id="2rCUphk5lxFRs8kfhUCh-51" style="edgeStyle=orthogonalEdgeStyle;rounded=0;orthogonalLoop=1;jettySize=auto;html=1;exitX=0.5;exitY=1;exitDx=0;exitDy=0;entryX=0;entryY=0.5;entryDx=0;entryDy=0;" edge="1" parent="1" source="2rCUphk5lxFRs8kfhUCh-52" target="2rCUphk5lxFRs8kfhUCh-58">
          <mxGeometry relative="1" as="geometry" />
        </mxCell>
        <mxCell id="2rCUphk5lxFRs8kfhUCh-52" value="" style="ellipse;whiteSpace=wrap;html=1;aspect=fixed;" vertex="1" parent="1">
          <mxGeometry x="816" y="590" width="10" height="10" as="geometry" />
        </mxCell>
        <mxCell id="2rCUphk5lxFRs8kfhUCh-53" style="edgeStyle=orthogonalEdgeStyle;rounded=0;orthogonalLoop=1;jettySize=auto;html=1;exitX=0.5;exitY=1;exitDx=0;exitDy=0;entryX=1;entryY=0.5;entryDx=0;entryDy=0;" edge="1" parent="1" source="2rCUphk5lxFRs8kfhUCh-54" target="2rCUphk5lxFRs8kfhUCh-58">
          <mxGeometry relative="1" as="geometry" />
        </mxCell>
        <mxCell id="2rCUphk5lxFRs8kfhUCh-54" value="" style="ellipse;whiteSpace=wrap;html=1;aspect=fixed;" vertex="1" parent="1">
          <mxGeometry x="1136" y="590" width="10" height="10" as="geometry" />
        </mxCell>
        <mxCell id="2rCUphk5lxFRs8kfhUCh-55" style="edgeStyle=orthogonalEdgeStyle;rounded=0;orthogonalLoop=1;jettySize=auto;html=1;exitX=0.5;exitY=1;exitDx=0;exitDy=0;entryX=0;entryY=0.5;entryDx=0;entryDy=0;" edge="1" parent="1" source="2rCUphk5lxFRs8kfhUCh-56" target="2rCUphk5lxFRs8kfhUCh-60">
          <mxGeometry relative="1" as="geometry" />
        </mxCell>
        <mxCell id="2rCUphk5lxFRs8kfhUCh-56" value="" style="ellipse;whiteSpace=wrap;html=1;aspect=fixed;" vertex="1" parent="1">
          <mxGeometry x="336" y="630" width="10" height="10" as="geometry" />
        </mxCell>
        <mxCell id="2rCUphk5lxFRs8kfhUCh-57" style="edgeStyle=orthogonalEdgeStyle;rounded=0;orthogonalLoop=1;jettySize=auto;html=1;exitX=0.5;exitY=1;exitDx=0;exitDy=0;entryX=1;entryY=0.5;entryDx=0;entryDy=0;" edge="1" parent="1" source="2rCUphk5lxFRs8kfhUCh-58" target="2rCUphk5lxFRs8kfhUCh-60">
          <mxGeometry relative="1" as="geometry" />
        </mxCell>
        <mxCell id="2rCUphk5lxFRs8kfhUCh-58" value="" style="ellipse;whiteSpace=wrap;html=1;aspect=fixed;" vertex="1" parent="1">
          <mxGeometry x="976" y="630" width="10" height="10" as="geometry" />
        </mxCell>
        <mxCell id="2rCUphk5lxFRs8kfhUCh-59" style="edgeStyle=orthogonalEdgeStyle;rounded=0;orthogonalLoop=1;jettySize=auto;html=1;exitX=0.5;exitY=1;exitDx=0;exitDy=0;entryX=0.5;entryY=0;entryDx=0;entryDy=0;" edge="1" parent="1" source="2rCUphk5lxFRs8kfhUCh-60" target="2rCUphk5lxFRs8kfhUCh-62">
          <mxGeometry relative="1" as="geometry" />
        </mxCell>
        <mxCell id="2rCUphk5lxFRs8kfhUCh-60" value="" style="ellipse;whiteSpace=wrap;html=1;aspect=fixed;" vertex="1" parent="1">
          <mxGeometry x="656" y="670" width="10" height="10" as="geometry" />
        </mxCell>
        <mxCell id="2rCUphk5lxFRs8kfhUCh-61" value="" style="edgeStyle=orthogonalEdgeStyle;rounded=0;orthogonalLoop=1;jettySize=auto;html=1;" edge="1" parent="1" source="2rCUphk5lxFRs8kfhUCh-62" target="2rCUphk5lxFRs8kfhUCh-63">
          <mxGeometry relative="1" as="geometry" />
        </mxCell>
        <mxCell id="2rCUphk5lxFRs8kfhUCh-62" value="" style="ellipse;whiteSpace=wrap;html=1;aspect=fixed;" vertex="1" parent="1">
          <mxGeometry x="656" y="750" width="10" height="10" as="geometry" />
        </mxCell>
        <mxCell id="2rCUphk5lxFRs8kfhUCh-63" value="End" style="ellipse;whiteSpace=wrap;html=1;" vertex="1" parent="1">
          <mxGeometry x="601" y="830" width="120" height="80" as="geometry" />
        </mxCell>
      </root>
    </mxGraphModel>
  </diagram>
</mxfile>
